<svg width="15" height="15" viewBox="0 0 15 15" fill="none" xmlns="http://www.w3.org/2000/svg">
<g clip-path="url(#clip0)">
<path d="M7.16288 9.6404C6.23774 9.49518 5.50515 8.76252 5.35992 7.83745L4.25136 6.72888C4.1927 6.97852 4.16235 7.23683 4.16235 7.50018C4.16235 9.34064 5.65966 10.838 7.50015 10.838C7.76294 10.838 8.02125 10.8075 8.27109 10.7486L7.16288 9.6404Z" fill="#AEB1BF"/>
<path d="M14.5175 8.17627C14.5974 8.07197 14.7457 7.85347 14.7624 7.82886L14.9849 7.50039L14.7623 7.17194C14.7457 7.14736 14.5974 6.92892 14.5175 6.82466C14.1442 6.3378 13.2702 5.19765 12.0652 4.2003C10.5562 2.95137 9.01518 2.31809 7.48488 2.31809C6.37198 2.31809 5.24725 2.65603 4.13552 3.32295L0.828105 0.015564L0 0.843669L14.1417 14.9853L14.9698 14.1572L11.8142 11.0016C13.1541 9.95412 14.124 8.68949 14.5175 8.17627ZM9.37412 8.56158L8.59222 7.77968C8.61469 7.69032 8.62673 7.5968 8.62673 7.50045C8.62673 6.8698 8.1155 6.35857 7.48485 6.35857C7.38853 6.35857 7.29501 6.37064 7.20565 6.39308L6.42378 5.61121C6.7447 5.43051 7.10815 5.3338 7.48485 5.3338C8.67955 5.3338 9.65147 6.30575 9.65147 7.50042C9.6515 7.87791 9.55477 8.24092 9.37412 8.56158ZM10.223 9.4104C10.6126 8.85408 10.8227 8.19273 10.8227 7.50045C10.8227 5.65999 9.32537 4.16265 7.48488 4.16265C6.79409 4.16265 6.13192 4.37312 5.57517 4.76259L4.99339 4.18082C5.83462 3.72162 6.6702 3.48924 7.48485 3.48924C9.46635 3.48924 11.5102 4.83885 13.5598 7.50048C13.1335 8.05621 12.2252 9.22553 10.9794 10.1668L10.223 9.4104Z" fill="#AEB1BF"/>
<path d="M8.81713 11.3143C8.37372 11.4453 7.93392 11.5114 7.5 11.5114C5.51853 11.5114 3.47473 10.1618 1.42509 7.5002C1.71926 7.11676 2.30988 6.35586 3.105 5.6022L2.27654 4.77374C1.40077 5.60744 0.767695 6.4328 0.467402 6.82447C0.38751 6.92873 0.239238 7.14714 0.222568 7.17175L0 7.50014L0.22251 7.82862C0.23915 7.85317 0.387451 8.07169 0.467402 8.17602C0.840644 8.66287 1.71472 9.80299 2.9197 10.8003C4.42866 12.0493 5.96971 12.6825 7.5 12.6825C8.24276 12.6825 8.99074 12.532 9.73658 12.2338L8.81713 11.3143Z" fill="#AEB1BF"/>
</g>
<defs>
<clipPath id="clip0">
<rect width="15" height="15" fill="white"/>
</clipPath>
</defs>
</svg>
