<?xml version="1.0" encoding="UTF-8" standalone="no"?>
<svg
   xmlns:dc="http://purl.org/dc/elements/1.1/"
   xmlns:cc="http://creativecommons.org/ns#"
   xmlns:rdf="http://www.w3.org/1999/02/22-rdf-syntax-ns#"
   xmlns:svg="http://www.w3.org/2000/svg"
   xmlns="http://www.w3.org/2000/svg"
   xmlns:sodipodi="http://sodipodi.sourceforge.net/DTD/sodipodi-0.dtd"
   xmlns:inkscape="http://www.inkscape.org/namespaces/inkscape"
   width="16"
   height="11.75"
   viewBox="0 0 16 11.75"
   fill="none"
   version="1.1"
   id="svg6"
   sodipodi:docname="ic_auth_ico_mail.svg"
   inkscape:version="1.0.1 (3bc2e813f5, 2020-09-07)">
  <metadata
     id="metadata12">
    <rdf:RDF>
      <cc:Work
         rdf:about="">
        <dc:format>image/svg+xml</dc:format>
        <dc:type
           rdf:resource="http://purl.org/dc/dcmitype/StillImage" />
        <dc:title></dc:title>
      </cc:Work>
    </rdf:RDF>
  </metadata>
  <defs
     id="defs10" />
  <sodipodi:namedview
     pagecolor="#ffffff"
     bordercolor="#666666"
     borderopacity="1"
     objecttolerance="10"
     gridtolerance="10"
     guidetolerance="10"
     inkscape:pageopacity="0"
     inkscape:pageshadow="2"
     inkscape:window-width="2560"
     inkscape:window-height="1017"
     id="namedview8"
     showgrid="false"
     fit-margin-top="0"
     fit-margin-left="0"
     fit-margin-right="0"
     fit-margin-bottom="0"
     inkscape:zoom="53.125"
     inkscape:cx="8"
     inkscape:cy="5.875"
     inkscape:window-x="-8"
     inkscape:window-y="-8"
     inkscape:window-maximized="1"
     inkscape:current-layer="svg6" />
  <path
     d="m 1.875,0 h 12.25 C 15.1589,0 16,0.84113 16,1.875 v 8 c 0,1.0339 -0.8411,1.875 -1.875,1.875 H 1.875 C 0.841125,11.75 0,10.9089 0,9.875 v -8 C 0,0.84113 0.841125,0 1.875,0 Z M 1.25,9.875 c 0,0.3446 0.28037,0.625 0.625,0.625 h 12.25 c 0.3446,0 0.625,-0.2804 0.625,-0.625 v -8 C 14.75,1.53038 14.4696,1.25 14.125,1.25 H 1.875 C 1.53037,1.25 1.25,1.53038 1.25,1.875 Z"
     fill="#aeb1bf"
     id="path2" />
  <path
     d="M 1.35584,0.77887 7.99971,5.72065 14.6436,0.77887 15.3896,1.78184 7.99971,7.27852 0.609774,1.78184 Z"
     fill="#aeb1bf"
     id="path4" />
</svg>
