<?xml version="1.0" encoding="UTF-8" standalone="no"?>
<svg
   xmlns:dc="http://purl.org/dc/elements/1.1/"
   xmlns:cc="http://creativecommons.org/ns#"
   xmlns:rdf="http://www.w3.org/1999/02/22-rdf-syntax-ns#"
   xmlns:svg="http://www.w3.org/2000/svg"
   xmlns="http://www.w3.org/2000/svg"
   xmlns:sodipodi="http://sodipodi.sourceforge.net/DTD/sodipodi-0.dtd"
   xmlns:inkscape="http://www.inkscape.org/namespaces/inkscape"
   width="12.75"
   height="16"
   viewBox="0 0 12.75 16"
   fill="none"
   version="1.1"
   id="svg13"
   sodipodi:docname="ic_auth_ico_password.svg"
   inkscape:version="1.0.1 (3bc2e813f5, 2020-09-07)">
  <metadata
     id="metadata17">
    <rdf:RDF>
      <cc:Work
         rdf:about="">
        <dc:format>image/svg+xml</dc:format>
        <dc:type
           rdf:resource="http://purl.org/dc/dcmitype/StillImage" />
        <dc:title></dc:title>
      </cc:Work>
    </rdf:RDF>
  </metadata>
  <sodipodi:namedview
     pagecolor="#ffffff"
     bordercolor="#666666"
     borderopacity="1"
     objecttolerance="10"
     gridtolerance="10"
     guidetolerance="10"
     inkscape:pageopacity="0"
     inkscape:pageshadow="2"
     inkscape:window-width="2560"
     inkscape:window-height="1017"
     id="namedview15"
     showgrid="false"
     fit-margin-top="0"
     fit-margin-left="0"
     fit-margin-right="0"
     fit-margin-bottom="0"
     inkscape:zoom="22.627417"
     inkscape:cx="17.249685"
     inkscape:cy="7.5567712"
     inkscape:window-x="-8"
     inkscape:window-y="-8"
     inkscape:window-maximized="1"
     inkscape:current-layer="svg13" />
  <g
     clip-path="url(#clip0)"
     id="g6"
     transform="translate(-1.625)">
    <path
       d="M 12.5,5.875 H 5.87384 V 3.30531 C 5.87384,2.172 6.82713,1.25 7.99884,1.25 c 1.17172,0 2.12496,0.922 2.12496,2.05531 V 4.5 h 1.25 V 3.30531 C 11.3738,1.48275 9.85981,0 7.99884,0 6.13788,0 4.62384,1.48275 4.62384,3.30531 V 5.875 H 3.5 c -1.03387,0 -1.875,0.84113 -1.875,1.875 v 6.375 C 1.625,15.1589 2.46613,16 3.5,16 h 9 c 1.0339,0 1.875,-0.8411 1.875,-1.875 V 7.75 c 0,-1.03387 -0.8411,-1.875 -1.875,-1.875 z m 0.625,8.25 c 0,0.3446 -0.2804,0.625 -0.625,0.625 h -9 c -0.34462,0 -0.625,-0.2804 -0.625,-0.625 V 7.75 C 2.875,7.40538 3.15538,7.125 3.5,7.125 h 9 c 0.3446,0 0.625,0.28038 0.625,0.625 z"
       fill="#aeb1bf"
       id="path2" />
    <path
       d="m 8,8.9375 c -0.63859,0 -1.15625,0.51766 -1.15625,1.1563 0,0.4077 0.21125,0.7659 0.53009,0.9718 v 1.3719 c 0,0.3452 0.27982,0.625 0.625,0.625 0.34516,0 0.625,-0.2798 0.625,-0.625 V 11.067 C 8.94397,10.8614 9.15625,10.5025 9.15625,10.0938 9.15625,9.45516 8.63859,8.9375 8,8.9375 Z"
       fill="#aeb1bf"
       id="path4" />
  </g>
  <defs
     id="defs11">
    <clipPath
       id="clip0">
      <rect
         width="16"
         height="16"
         fill="#ffffff"
         id="rect8"
         x="0"
         y="0" />
    </clipPath>
  </defs>
</svg>
