<svg width="91" height="13" viewBox="0 0 91 13" fill="none" xmlns="http://www.w3.org/2000/svg">
<path d="M0.03125 12H7.89489V9.45455H3.19034V0.363636H0.03125V12ZM13.5991 12.1591C16.0196 12.1591 17.5764 11 17.8719 9.18182H15.0082C14.8264 9.67614 14.3094 9.95455 13.6673 9.95455C12.7355 9.95455 12.1901 9.34091 12.1901 8.5V8.36364H17.8719V7.63636C17.8719 4.85795 16.1673 3.15909 13.531 3.15909C10.8264 3.15909 9.09915 4.95455 9.09915 7.65909C9.09915 10.483 10.8037 12.1591 13.5991 12.1591ZM12.1901 6.63636C12.2071 5.88068 12.8321 5.36364 13.5991 5.36364C14.3776 5.36364 14.9685 5.88636 14.9855 6.63636H12.1901ZM21.7835 12.1364C22.9199 12.1364 23.7778 11.75 24.3062 10.7727H24.3744V12H27.3062V6.02273C27.3062 4.40909 25.7778 3.15909 23.2835 3.15909C20.6756 3.15909 19.3915 4.52273 19.2835 6.11364H22.1699C22.2437 5.57386 22.6415 5.31818 23.2381 5.31818C23.7835 5.31818 24.1699 5.56818 24.1699 6.02273V6.04545C24.1699 6.55114 23.6131 6.71023 22.1472 6.81818C20.346 6.94886 18.9426 7.67614 18.9426 9.59091C18.9426 11.3295 20.1131 12.1364 21.7835 12.1364ZM22.8062 10.1591C22.2722 10.1591 21.8972 9.89773 21.8972 9.40909C21.8972 8.96023 22.2153 8.61364 22.9426 8.5C23.4426 8.42045 23.8631 8.31818 24.1926 8.18182V8.90909C24.1926 9.70455 23.5165 10.1591 22.8062 10.1591ZM29.0048 12H32.1412V7.45455C32.1412 6.45455 32.8287 5.79545 33.7548 5.79545C34.0787 5.79545 34.6014 5.84659 34.9139 5.95455V3.27841C34.6639 3.20455 34.3912 3.15909 34.1185 3.15909C33.1866 3.15909 32.4594 3.70455 32.1412 4.93182H32.0503V3.27273H29.0048V12ZM39.2787 7.09091C39.2844 6.22727 39.773 5.70455 40.5514 5.70455C41.3412 5.70455 41.8071 6.22727 41.8014 7.09091V12H44.9378V6.43182C44.9435 4.53409 43.7446 3.15909 41.8923 3.15909C40.6082 3.15909 39.5912 3.82955 39.2105 4.93182H39.1196V3.27273H36.1423V12H39.2787V7.09091ZM48.3906 12.1818C49.2259 12.1818 49.9702 11.4773 49.9815 10.5909C49.9702 9.72727 49.2259 9.02273 48.3906 9.02273C47.5099 9.02273 46.7884 9.72727 46.7997 10.5909C46.7884 11.4773 47.5099 12.1818 48.3906 12.1818ZM59.852 0.363636V7.875C59.852 9.45455 58.7611 10.5909 56.9884 10.5909C55.2213 10.5909 54.1247 9.45455 54.1247 7.875V0.363636H52.369V8.01705C52.369 10.4602 54.1986 12.1932 56.9884 12.1932C59.7781 12.1932 61.6134 10.4602 61.6134 8.01705V0.363636H59.852ZM65.9284 0.363636H64.2295V12H65.9284V0.363636ZM74.9537 5.40341C74.6014 4.04545 73.5389 3.15909 71.6526 3.15909C69.681 3.15909 68.2832 4.19886 68.2832 5.74432C68.2832 6.98295 69.0332 7.80682 70.6696 8.17045L72.1469 8.49432C72.9878 8.68182 73.3798 9.05682 73.3798 9.60227C73.3798 10.2784 72.6582 10.8068 71.5446 10.8068C70.5276 10.8068 69.8741 10.3693 69.6696 9.51136L68.0276 9.76136C68.3116 11.3068 69.5957 12.1761 71.556 12.1761C73.6639 12.1761 75.1241 11.0568 75.1241 9.47727C75.1241 8.24432 74.3401 7.48295 72.7378 7.11364L71.3514 6.79545C70.3912 6.56818 69.9764 6.24432 69.9821 5.65341C69.9764 4.98295 70.7037 4.50568 71.6696 4.50568C72.7264 4.50568 73.2151 5.09091 73.4139 5.67614L74.9537 5.40341ZM81.2659 3.27273H79.4761V1.18182H77.7773V3.27273H76.4989V4.63636H77.7773V9.78977C77.7716 11.375 78.9818 12.142 80.3227 12.1136C80.8625 12.108 81.2261 12.0057 81.425 11.9318L81.1182 10.5284C81.0045 10.5511 80.7943 10.6023 80.5216 10.6023C79.9705 10.6023 79.4761 10.4205 79.4761 9.4375V4.63636H81.2659V3.27273ZM88.8736 8.38068C88.8793 9.86364 87.777 10.5682 86.8224 10.5682C85.7713 10.5682 85.044 9.80682 85.044 8.61932V3.27273H83.3452V8.82386C83.3452 10.9886 84.5327 12.1136 86.2088 12.1136C87.5213 12.1136 88.4134 11.4205 88.8168 10.4886H88.9077V12H90.5781V3.27273H88.8736V8.38068Z" fill="url(#paint0_linear)"/>
<defs>
<linearGradient id="paint0_linear" x1="140.757" y1="2" x2="123.394" y2="54.3453" gradientUnits="userSpaceOnUse">
<stop stop-color="#88DDFF"/>
<stop offset="0.994792" stop-color="#4364F7"/>
</linearGradient>
</defs>
</svg>
