<?xml version="1.0" encoding="UTF-8" standalone="no"?>
<svg
   xmlns:dc="http://purl.org/dc/elements/1.1/"
   xmlns:cc="http://creativecommons.org/ns#"
   xmlns:rdf="http://www.w3.org/1999/02/22-rdf-syntax-ns#"
   xmlns:svg="http://www.w3.org/2000/svg"
   xmlns="http://www.w3.org/2000/svg"
   xmlns:sodipodi="http://sodipodi.sourceforge.net/DTD/sodipodi-0.dtd"
   xmlns:inkscape="http://www.inkscape.org/namespaces/inkscape"
   width="17.200001"
   height="11.3053"
   viewBox="0 0 17.200001 11.3053"
   fill="none"
   version="1.1"
   id="svg4"
   sodipodi:docname="Team.svg"
   inkscape:version="1.0.1 (3bc2e813f5, 2020-09-07)">
  <metadata
     id="metadata10">
    <rdf:RDF>
      <cc:Work
         rdf:about="">
        <dc:format>image/svg+xml</dc:format>
        <dc:type
           rdf:resource="http://purl.org/dc/dcmitype/StillImage" />
        <dc:title></dc:title>
      </cc:Work>
    </rdf:RDF>
  </metadata>
  <defs
     id="defs8" />
  <sodipodi:namedview
     pagecolor="#ffffff"
     bordercolor="#666666"
     borderopacity="1"
     objecttolerance="10"
     gridtolerance="10"
     guidetolerance="10"
     inkscape:pageopacity="0"
     inkscape:pageshadow="2"
     inkscape:window-width="2560"
     inkscape:window-height="1017"
     id="namedview6"
     showgrid="false"
     fit-margin-top="0"
     fit-margin-left="0"
     fit-margin-right="0"
     fit-margin-bottom="0"
     inkscape:zoom="50.08673"
     inkscape:cx="8.6"
     inkscape:cy="5.6"
     inkscape:window-x="-8"
     inkscape:window-y="-8"
     inkscape:window-maximized="1"
     inkscape:current-layer="svg4" />
  <path
     d="M 0.6,10.7053 H 0 v 0.6 h 0.6 z m 10.1818,0 v 0.6 h 0.6 v -0.6 z M 10.8036,6.41053 10.7528,5.81269 9.13517,5.95029 10.4535,6.89775 Z m 1.4328,4.29477 h -0.6 v 0.6 h 0.6 z m 4.3636,0 v 0.6 h 0.6 v -0.6 z M 11.5091,5.53083 c 1.537,0 2.7745,-1.23419 2.7745,-2.76542 h -1.2 c 0,0.86517 -0.6969,1.56542 -1.5745,1.56542 z M 14.2836,2.76541 C 14.2836,1.23419 13.0461,0 11.5091,0 v 1.2 c 0.8776,0 1.5745,0.70024 1.5745,1.56541 z M 11.5091,0 C 9.9747,0 8.72727,1.23159 8.72727,2.76541 H 9.9273 C 9.9273,1.90285 10.6289,1.2 11.5091,1.2 Z M 8.72727,2.76541 c 0,1.53383 1.24743,2.76542 2.78183,2.76542 v -1.2 c -0.8802,0 -1.5818,-0.70285 -1.5818,-1.56542 z M 5.69091,5.53083 c 1.53699,0 2.77455,-1.23419 2.77455,-2.76542 h -1.2 c 0,0.86517 -0.69699,1.56542 -1.57455,1.56542 z M 8.46546,2.76541 C 8.46546,1.23419 7.2279,0 5.69091,0 v 1.2 c 0.87756,0 1.57455,0.70024 1.57455,1.56541 z M 5.69091,0 C 4.15654,0 2.90909,1.23159 2.90909,2.76541 h 1.2 C 4.10909,1.90285 4.81073,1.2 5.69091,1.2 Z M 2.90909,2.76541 c 0,1.53383 1.24745,2.76542 2.78182,2.76542 v -1.2 c -0.88018,0 -1.58182,-0.70285 -1.58182,-1.56542 z M 5.69091,5.77444 C 4.76929,5.77444 3.4213,5.99939 2.28853,6.44929 1.72176,6.67439 1.17093,6.97051 0.75205,7.35391 0.329263,7.74089 0,8.25807 0,8.90075 H 1.2 C 1.2,8.70253 1.29528,8.48347 1.56227,8.2391 1.83316,7.99114 2.23733,7.7608 2.73147,7.56455 3.72052,7.17173 4.91798,6.97444 5.69091,6.97444 Z M 0,8.90075 V 10.7053 H 1.2 V 8.90075 Z m 0.6,2.40455 h 10.1818 v -1.2 H 0.6 Z m 10.7818,-0.6 V 8.90075 h -1.2 v 1.80455 z m 0,-1.80455 c 0,-0.64268 -0.3292,-1.15986 -0.752,-1.54684 C 10.2109,6.97051 9.6601,6.67439 9.09329,6.44929 7.96052,5.99939 6.61252,5.77444 5.69091,5.77444 v 1.2 c 0.77293,0 1.97039,0.19729 2.95944,0.59011 0.49413,0.19625 0.8983,0.42659 1.16925,0.67455 0.2669,0.24437 0.3622,0.46343 0.3622,0.66165 z m 0.1273,-3.12631 c -0.2355,0 -0.4947,0.01599 -0.7563,0.03825 l 0.1017,1.19568 C 11.102,6.98731 11.3228,6.97444 11.5091,6.97444 Z m -1.0556,1.12331 c 0.7455,0.53583 1.1829,1.19038 1.1829,2.003 h 1.2 c 0,-1.32392 -0.7409,-2.30064 -1.6826,-2.97745 z m 1.1829,2.003 v 1.80455 h 1.2 V 8.90075 Z m 0.6,2.40455 H 16.6 v -1.2 h -4.3636 z m 4.9636,-0.6 V 8.90075 H 16 v 1.80455 z m 0,-1.80455 C 17.2,8.25807 16.8707,7.74089 16.4479,7.35391 16.0291,6.97051 15.4782,6.67439 14.9115,6.44929 13.7787,5.99939 12.4307,5.77444 11.5091,5.77444 v 1.2 c 0.7729,0 1.9704,0.19729 2.9594,0.59011 0.4942,0.19625 0.8983,0.42659 1.1692,0.67455 C 15.9047,8.48347 16,8.70253 16,8.90075 Z"
     fill="#aeb1bf"
     id="path2" />
</svg>
