<svg width="23" height="24" viewBox="0 0 23 24" fill="none" xmlns="http://www.w3.org/2000/svg">
<path fill-rule="evenodd" clip-rule="evenodd" d="M9.0001 19.2L4.2001 14.614L5.8921 12.9975L9.0001 15.9554L16.9081 8.4L18.6001 10.028L9.0001 19.2ZM11.4001 2.4C12.0601 2.4 12.6001 2.94 12.6001 3.6C12.6001 4.26 12.0601 4.8 11.4001 4.8C10.7401 4.8 10.2001 4.26 10.2001 3.6C10.2001 2.94 10.7401 2.4 11.4001 2.4ZM19.8001 2.4H14.7841C14.2801 1.008 12.9601 0 11.4001 0C9.8401 0 8.5201 1.008 8.0161 2.4H3.0001C1.6801 2.4 0.600098 3.48 0.600098 4.8V21.6C0.600098 22.92 1.6801 24 3.0001 24H19.8001C21.1201 24 22.2001 22.92 22.2001 21.6V4.8C22.2001 3.48 21.1201 2.4 19.8001 2.4Z" fill="#ABB3BD"/>
</svg>
