<?xml version="1.0" encoding="UTF-8" standalone="no"?>
<svg
   xmlns:dc="http://purl.org/dc/elements/1.1/"
   xmlns:cc="http://creativecommons.org/ns#"
   xmlns:rdf="http://www.w3.org/1999/02/22-rdf-syntax-ns#"
   xmlns:svg="http://www.w3.org/2000/svg"
   xmlns="http://www.w3.org/2000/svg"
   xmlns:sodipodi="http://sodipodi.sourceforge.net/DTD/sodipodi-0.dtd"
   xmlns:inkscape="http://www.inkscape.org/namespaces/inkscape"
   width="11.002863"
   height="11"
   viewBox="0 0 11.002863 11"
   fill="none"
   version="1.1"
   id="svg15"
   sodipodi:docname="im_schedule_pair_teacher.svg"
   inkscape:version="1.0.1 (3bc2e813f5, 2020-09-07)">
  <metadata
     id="metadata19">
    <rdf:RDF>
      <cc:Work
         rdf:about="">
        <dc:format>image/svg+xml</dc:format>
        <dc:type
           rdf:resource="http://purl.org/dc/dcmitype/StillImage" />
        <dc:title></dc:title>
      </cc:Work>
    </rdf:RDF>
  </metadata>
  <sodipodi:namedview
     pagecolor="#ffffff"
     bordercolor="#666666"
     borderopacity="1"
     objecttolerance="10"
     gridtolerance="10"
     guidetolerance="10"
     inkscape:pageopacity="0"
     inkscape:pageshadow="2"
     inkscape:window-width="2560"
     inkscape:window-height="1017"
     id="namedview17"
     showgrid="false"
     fit-margin-top="0"
     fit-margin-left="0"
     fit-margin-right="0"
     fit-margin-bottom="0"
     inkscape:zoom="54.640069"
     inkscape:cx="5.074463"
     inkscape:cy="5.5"
     inkscape:window-x="-8"
     inkscape:window-y="-8"
     inkscape:window-maximized="1"
     inkscape:current-layer="svg15" />
  <g
     clip-path="url(#clip0)"
     id="g8"
     transform="translate(-0.925537)">
    <path
       d="M 6.42697,0 C 3.39349,0 0.925537,2.46731 0.925537,5.5 0.925537,8.53269 3.39349,11 6.42697,11 9.46045,11 11.9284,8.53269 11.9284,5.5 11.9284,2.46731 9.46045,0 6.42697,0 Z m 0,10.1293 c -2.55331,0 -4.63049,-2.07681 -4.63049,-4.6293 0,-2.55249 2.07718,-4.629281 4.63049,-4.629281 2.55316,0 4.63053,2.076941 4.63053,4.629431 0,2.55249 -2.07737,4.62915 -4.63053,4.62915 z"
       fill="#d1d0d6"
       id="path2" />
    <path
       d="m 6.42683,6.47607 c -1.54721,0 -2.99486,0.77566 -4.076,2.18389 L 3.04178,9.18994 C 3.95437,8.00142 5.15656,7.34679 6.42683,7.34679 c 1.27028,0 2.47245,0.65463 3.38491,1.84315 L 10.5027,8.65996 C 9.42155,7.25173 7.97405,6.47607 6.42683,6.47607 Z"
       fill="#d1d0d6"
       id="path4" />
    <path
       d="m 6.4263,1.97339 c -1.24863,0 -2.26443,1.02207 -2.26443,2.27835 0,1.25628 1.0158,2.27838 2.26443,2.27838 1.24863,0 2.26444,-1.02208 2.26444,-2.27836 0,-1.25627 -1.01581,-2.27837 -2.26444,-2.27837 z m 0,3.68601 c -0.76831,0 -1.39349,-0.63141 -1.39349,-1.40766 0,-0.77625 0.62518,-1.40765 1.39349,-1.40765 0.76831,0 1.39349,0.63155 1.39349,1.40765 0,0.7761 -0.62518,1.40766 -1.39349,1.40766 z"
       fill="#d1d0d6"
       id="path6" />
  </g>
  <defs
     id="defs13">
    <clipPath
       id="clip0">
      <rect
         width="11.0029"
         height="11"
         fill="#ffffff"
         transform="translate(0.925537)"
         id="rect10"
         x="0"
         y="0" />
    </clipPath>
  </defs>
</svg>
