<?xml version="1.0" encoding="UTF-8" standalone="no"?>
<svg
   xmlns:dc="http://purl.org/dc/elements/1.1/"
   xmlns:cc="http://creativecommons.org/ns#"
   xmlns:rdf="http://www.w3.org/1999/02/22-rdf-syntax-ns#"
   xmlns:svg="http://www.w3.org/2000/svg"
   xmlns="http://www.w3.org/2000/svg"
   xmlns:sodipodi="http://sodipodi.sourceforge.net/DTD/sodipodi-0.dtd"
   xmlns:inkscape="http://www.inkscape.org/namespaces/inkscape"
   width="11.002842"
   height="11"
   viewBox="0 0 11.002842 11"
   fill="none"
   version="1.1"
   id="svg13"
   sodipodi:docname="im_schedule_pair_time.svg"
   inkscape:version="1.0.1 (3bc2e813f5, 2020-09-07)">
  <metadata
     id="metadata17">
    <rdf:RDF>
      <cc:Work
         rdf:about="">
        <dc:format>image/svg+xml</dc:format>
        <dc:type
           rdf:resource="http://purl.org/dc/dcmitype/StillImage" />
        <dc:title></dc:title>
      </cc:Work>
    </rdf:RDF>
  </metadata>
  <sodipodi:namedview
     pagecolor="#ffffff"
     bordercolor="#666666"
     borderopacity="1"
     objecttolerance="10"
     gridtolerance="10"
     guidetolerance="10"
     inkscape:pageopacity="0"
     inkscape:pageshadow="2"
     inkscape:window-width="2560"
     inkscape:window-height="1017"
     id="namedview15"
     showgrid="false"
     fit-margin-top="0"
     fit-margin-left="0"
     fit-margin-right="0"
     fit-margin-bottom="0"
     inkscape:zoom="54.640069"
     inkscape:cx="5.074642"
     inkscape:cy="5.5"
     inkscape:window-x="-8"
     inkscape:window-y="-8"
     inkscape:window-maximized="1"
     inkscape:current-layer="svg13" />
  <g
     clip-path="url(#clip0)"
     id="g6"
     transform="translate(-0.925358)">
    <path
       d="M 6.42679,0 C 9.46021,0 11.9282,2.46724 11.9282,5.5 11.9282,8.53276 9.46021,11 6.42679,11 3.39324,11 0.925358,8.53276 0.925358,5.5 0.925358,2.46724 3.39337,0 6.42679,0 Z m 0,10.1971 c 2.59062,0 4.69831,-2.10716 4.69831,-4.6971 0,-2.58994 -2.10769,-4.697086 -4.69831,-4.697086 -2.59062,0 -4.69831,2.107126 -4.69831,4.696956 0,2.59007 2.10769,4.69723 4.69831,4.69723 z"
       fill="#556BDA"
       id="path2"
       style="fill:#d1d0d6;fill-opacity:1" />
    <path
       d="m 4.55321,5.4998 h 1.7401 V 3.09103 c 0,-0.22174 0.17977,-0.40145 0.40156,-0.40145 0.2218,0 0.40157,0.17971 0.40157,0.40145 v 2.81022 c 0,0.22174 -0.17977,0.40146 -0.40157,0.40146 H 4.55321 c -0.2218,0 -0.40157,-0.17972 -0.40157,-0.40146 0,-0.22174 0.17977,-0.40145 0.40157,-0.40145 z"
       fill="#556BDA"
       id="path4"
       style="fill:#d1d0d6;fill-opacity:1" />
  </g>
  <defs
     id="defs11">
    <clipPath
       id="clip0">
      <rect
         width="11.0029"
         height="11"
         fill="#ffffff"
         transform="matrix(-1,0,0,1,11.9282,0)"
         id="rect8"
         x="0"
         y="0" />
    </clipPath>
  </defs>
</svg>
